<mxfile host="app.diagrams.net" modified="2023-10-28T13:53:58.300Z" agent="Mozilla/5.0 (Windows NT 10.0; Win64; x64) AppleWebKit/537.36 (KHTML, like Gecko) Chrome/118.0.0.0 Safari/537.36" etag="hP1ExqsPsXbgM61qZiwH" version="22.0.8" type="google">
  <diagram name="Page-1" id="929967ad-93f9-6ef4-fab6-5d389245f69c">
    <mxGraphModel grid="1" page="1" gridSize="10" guides="1" tooltips="1" connect="1" arrows="1" fold="1" pageScale="1.5" pageWidth="1169" pageHeight="826" background="none" math="0" shadow="0">
      <root>
        <mxCell id="0" style=";html=1;" />
        <mxCell id="1" style=";html=1;" parent="0" />
        <mxCell id="3-DTyi6wJWJmFrl9vL72-6" value="&amp;lt;&amp;lt;JAVA server page&amp;gt;&amp;gt;&lt;br&gt;recordRent" style="shape=module;align=left;spacingLeft=20;align=center;verticalAlign=top;whiteSpace=wrap;html=1;" vertex="1" parent="1">
          <mxGeometry x="100" y="330" width="100" height="50" as="geometry" />
        </mxCell>
        <mxCell id="3-DTyi6wJWJmFrl9vL72-7" value="&amp;lt;&amp;lt;JAVA server page&amp;gt;&amp;gt;&lt;br&gt;queryBOOK" style="shape=module;align=left;spacingLeft=20;align=center;verticalAlign=top;whiteSpace=wrap;html=1;" vertex="1" parent="1">
          <mxGeometry x="100" y="220" width="100" height="50" as="geometry" />
        </mxCell>
        <mxCell id="3-DTyi6wJWJmFrl9vL72-8" value="&amp;lt;&amp;lt;JAVA server page&amp;gt;&amp;gt;&lt;br&gt;modifyBOOK" style="shape=module;align=left;spacingLeft=20;align=center;verticalAlign=top;whiteSpace=wrap;html=1;" vertex="1" parent="1">
          <mxGeometry x="80" y="130" width="120" height="50" as="geometry" />
        </mxCell>
        <mxCell id="3-DTyi6wJWJmFrl9vL72-9" value="&amp;lt;&amp;lt;JAVA server page&amp;gt;&amp;gt;&lt;br&gt;addBook" style="shape=module;align=left;spacingLeft=20;align=center;verticalAlign=top;whiteSpace=wrap;html=1;" vertex="1" parent="1">
          <mxGeometry x="100" y="30" width="100" height="50" as="geometry" />
        </mxCell>
        <mxCell id="3-DTyi6wJWJmFrl9vL72-35" style="edgeStyle=orthogonalEdgeStyle;rounded=0;orthogonalLoop=1;jettySize=auto;html=1;exitX=0.5;exitY=1;exitDx=0;exitDy=0;dashed=1;" edge="1" parent="1" source="3-DTyi6wJWJmFrl9vL72-10" target="3-DTyi6wJWJmFrl9vL72-11">
          <mxGeometry relative="1" as="geometry" />
        </mxCell>
        <mxCell id="3-DTyi6wJWJmFrl9vL72-10" value="&amp;lt;&amp;lt;java beans&amp;gt;&amp;gt;&lt;br&gt;BOOK" style="shape=module;align=left;spacingLeft=20;align=center;verticalAlign=top;whiteSpace=wrap;html=1;" vertex="1" parent="1">
          <mxGeometry x="400" y="120" width="100" height="50" as="geometry" />
        </mxCell>
        <mxCell id="3-DTyi6wJWJmFrl9vL72-11" value="&amp;lt;&amp;lt;JAVA Bcans&amp;gt;&amp;gt;&lt;br&gt;BDMANAGER&amp;nbsp;&amp;nbsp;" style="shape=module;align=left;spacingLeft=20;align=center;verticalAlign=top;whiteSpace=wrap;html=1;" vertex="1" parent="1">
          <mxGeometry x="400" y="230" width="100" height="50" as="geometry" />
        </mxCell>
        <mxCell id="3-DTyi6wJWJmFrl9vL72-38" style="edgeStyle=orthogonalEdgeStyle;rounded=0;orthogonalLoop=1;jettySize=auto;html=1;exitX=0.5;exitY=0;exitDx=0;exitDy=0;entryX=0.5;entryY=1;entryDx=0;entryDy=0;dashed=1;" edge="1" parent="1" source="3-DTyi6wJWJmFrl9vL72-12" target="3-DTyi6wJWJmFrl9vL72-11">
          <mxGeometry relative="1" as="geometry" />
        </mxCell>
        <mxCell id="3-DTyi6wJWJmFrl9vL72-12" value="&amp;lt;&amp;lt;JAVA Beans&amp;gt;&amp;gt;&lt;br&gt;RENT" style="shape=module;align=left;spacingLeft=20;align=center;verticalAlign=top;whiteSpace=wrap;html=1;" vertex="1" parent="1">
          <mxGeometry x="380" y="370" width="100" height="50" as="geometry" />
        </mxCell>
        <mxCell id="3-DTyi6wJWJmFrl9vL72-13" value="&lt;font style=&quot;vertical-align: inherit;&quot;&gt;&lt;font style=&quot;vertical-align: inherit;&quot;&gt;JDBC&lt;/font&gt;&lt;/font&gt;" style="shape=folder;fontStyle=1;spacingTop=10;tabWidth=40;tabHeight=14;tabPosition=left;html=1;whiteSpace=wrap;" vertex="1" parent="1">
          <mxGeometry x="560" y="140" width="70" height="50" as="geometry" />
        </mxCell>
        <mxCell id="3-DTyi6wJWJmFrl9vL72-15" value="&amp;lt;&amp;lt;JAVA server page&amp;gt;&amp;gt;&lt;br&gt;recordRent" style="shape=module;align=left;spacingLeft=20;align=center;verticalAlign=top;whiteSpace=wrap;html=1;" vertex="1" parent="1">
          <mxGeometry x="90" y="330" width="100" height="50" as="geometry" />
        </mxCell>
        <mxCell id="3-DTyi6wJWJmFrl9vL72-16" value="&amp;lt;&amp;lt;JAVA server page&amp;gt;&amp;gt;&lt;br&gt;queryRent" style="shape=module;align=left;spacingLeft=20;align=center;verticalAlign=top;whiteSpace=wrap;html=1;" vertex="1" parent="1">
          <mxGeometry x="100" y="420" width="150" height="50" as="geometry" />
        </mxCell>
        <mxCell id="3-DTyi6wJWJmFrl9vL72-18" value="" style="endArrow=classic;html=1;rounded=0;dashed=1;entryX=0;entryY=1;entryDx=10;entryDy=0;entryPerimeter=0;" edge="1" parent="1" target="3-DTyi6wJWJmFrl9vL72-10">
          <mxGeometry relative="1" as="geometry">
            <mxPoint x="200" y="260" as="sourcePoint" />
            <mxPoint x="300" y="260" as="targetPoint" />
          </mxGeometry>
        </mxCell>
        <mxCell id="3-DTyi6wJWJmFrl9vL72-28" style="edgeStyle=orthogonalEdgeStyle;rounded=0;orthogonalLoop=1;jettySize=auto;html=1;entryX=0.12;entryY=0.292;entryDx=0;entryDy=0;entryPerimeter=0;dashed=1;" edge="1" parent="1" source="3-DTyi6wJWJmFrl9vL72-9" target="3-DTyi6wJWJmFrl9vL72-10">
          <mxGeometry relative="1" as="geometry" />
        </mxCell>
        <mxCell id="3-DTyi6wJWJmFrl9vL72-32" style="edgeStyle=orthogonalEdgeStyle;rounded=0;orthogonalLoop=1;jettySize=auto;html=1;entryX=0.08;entryY=0.74;entryDx=0;entryDy=0;entryPerimeter=0;dashed=1;" edge="1" parent="1" source="3-DTyi6wJWJmFrl9vL72-8" target="3-DTyi6wJWJmFrl9vL72-10">
          <mxGeometry relative="1" as="geometry" />
        </mxCell>
        <mxCell id="3-DTyi6wJWJmFrl9vL72-36" style="edgeStyle=orthogonalEdgeStyle;rounded=0;orthogonalLoop=1;jettySize=auto;html=1;exitX=1;exitY=0;exitDx=0;exitDy=0;entryX=0;entryY=0;entryDx=0;entryDy=15;entryPerimeter=0;dashed=1;" edge="1" parent="1" source="3-DTyi6wJWJmFrl9vL72-6" target="3-DTyi6wJWJmFrl9vL72-12">
          <mxGeometry relative="1" as="geometry" />
        </mxCell>
        <mxCell id="3-DTyi6wJWJmFrl9vL72-37" style="edgeStyle=orthogonalEdgeStyle;rounded=0;orthogonalLoop=1;jettySize=auto;html=1;exitX=1;exitY=0.75;exitDx=0;exitDy=0;entryX=0.072;entryY=0.78;entryDx=0;entryDy=0;entryPerimeter=0;dashed=1;" edge="1" parent="1" source="3-DTyi6wJWJmFrl9vL72-16" target="3-DTyi6wJWJmFrl9vL72-12">
          <mxGeometry relative="1" as="geometry" />
        </mxCell>
        <mxCell id="3-DTyi6wJWJmFrl9vL72-41" value="" style="endArrow=block;endSize=16;endFill=0;html=1;rounded=0;exitX=1;exitY=0.5;exitDx=0;exitDy=0;entryX=0.5;entryY=1;entryDx=0;entryDy=0;entryPerimeter=0;" edge="1" parent="1" source="3-DTyi6wJWJmFrl9vL72-11" target="3-DTyi6wJWJmFrl9vL72-13">
          <mxGeometry width="160" relative="1" as="geometry">
            <mxPoint x="460" y="130" as="sourcePoint" />
            <mxPoint x="620" y="130" as="targetPoint" />
          </mxGeometry>
        </mxCell>
        <mxCell id="3-DTyi6wJWJmFrl9vL72-42" value="# ubiquitous-spoon&#xa;ubiquitous-spoon" style="text;whiteSpace=wrap;html=1;" vertex="1" parent="1">
          <mxGeometry x="120" y="510" width="130" height="50" as="geometry" />
        </mxCell>
        <mxCell id="3-DTyi6wJWJmFrl9vL72-43" value="&lt;p style=&quot;margin:0px;margin-top:6px;text-align:center;&quot;&gt;《file》&lt;br&gt;&lt;/p&gt;&lt;hr&gt;&lt;p style=&quot;margin:0px;margin-left:8px;&quot;&gt;&lt;span style=&quot;white-space: pre;&quot;&gt;&#x9;&lt;/span&gt;interp.cpp&lt;br&gt;&lt;/p&gt;" style="align=left;overflow=fill;html=1;dropTarget=0;whiteSpace=wrap;" vertex="1" parent="1">
          <mxGeometry x="220" y="760" width="130" height="60" as="geometry" />
        </mxCell>
        <mxCell id="3-DTyi6wJWJmFrl9vL72-44" value="" style="shape=component;jettyWidth=8;jettyHeight=4;" vertex="1" parent="3-DTyi6wJWJmFrl9vL72-43">
          <mxGeometry x="1" width="20" height="20" relative="1" as="geometry">
            <mxPoint x="-24" y="4" as="offset" />
          </mxGeometry>
        </mxCell>
        <mxCell id="3-DTyi6wJWJmFrl9vL72-45" value="&lt;p style=&quot;margin:0px;margin-top:6px;text-align:center;&quot;&gt;&lt;b&gt;《file》&lt;/b&gt;&lt;br&gt;&lt;/p&gt;&lt;hr&gt;&lt;p style=&quot;margin:0px;margin-left:8px;&quot;&gt;&lt;span style=&quot;white-space: pre;&quot;&gt;&#x9;&lt;/span&gt;signal.cpp&lt;/p&gt;" style="align=left;overflow=fill;html=1;dropTarget=0;whiteSpace=wrap;" vertex="1" parent="1">
          <mxGeometry x="420" y="760" width="130" height="60" as="geometry" />
        </mxCell>
        <mxCell id="3-DTyi6wJWJmFrl9vL72-46" value="" style="shape=component;jettyWidth=8;jettyHeight=4;" vertex="1" parent="3-DTyi6wJWJmFrl9vL72-45">
          <mxGeometry x="1" width="20" height="20" relative="1" as="geometry">
            <mxPoint x="-24" y="4" as="offset" />
          </mxGeometry>
        </mxCell>
        <mxCell id="3-DTyi6wJWJmFrl9vL72-47" value="&lt;p style=&quot;margin:0px;margin-top:6px;text-align:center;&quot;&gt;《file》&lt;br&gt;&lt;/p&gt;&lt;hr&gt;&lt;p style=&quot;margin:0px;margin-left:8px;&quot;&gt;&lt;span style=&quot;white-space: pre;&quot;&gt;&#x9;&lt;/span&gt;signal.h&lt;br&gt;&lt;/p&gt;" style="align=left;overflow=fill;html=1;dropTarget=0;whiteSpace=wrap;" vertex="1" parent="1">
          <mxGeometry x="310" y="630" width="130" height="60" as="geometry" />
        </mxCell>
        <mxCell id="3-DTyi6wJWJmFrl9vL72-48" value="" style="shape=component;jettyWidth=8;jettyHeight=4;" vertex="1" parent="3-DTyi6wJWJmFrl9vL72-47">
          <mxGeometry x="1" width="20" height="20" relative="1" as="geometry">
            <mxPoint x="-24" y="4" as="offset" />
          </mxGeometry>
        </mxCell>
        <mxCell id="3-DTyi6wJWJmFrl9vL72-49" value="&lt;p style=&quot;margin:0px;margin-top:6px;text-align:center;&quot;&gt;&lt;b&gt;《file》&lt;/b&gt;&lt;br&gt;&lt;/p&gt;&lt;hr&gt;&lt;p style=&quot;margin:0px;margin-left:8px;&quot;&gt;&lt;span style=&quot;white-space: pre;&quot;&gt;&#x9;&lt;/span&gt;irq.h&lt;/p&gt;" style="align=left;overflow=fill;html=1;dropTarget=0;whiteSpace=wrap;" vertex="1" parent="1">
          <mxGeometry x="120" y="920" width="110" height="60" as="geometry" />
        </mxCell>
        <mxCell id="3-DTyi6wJWJmFrl9vL72-50" value="" style="shape=component;jettyWidth=8;jettyHeight=4;" vertex="1" parent="3-DTyi6wJWJmFrl9vL72-49">
          <mxGeometry x="1" width="20" height="20" relative="1" as="geometry">
            <mxPoint x="-24" y="4" as="offset" />
          </mxGeometry>
        </mxCell>
        <mxCell id="3-DTyi6wJWJmFrl9vL72-51" value="&lt;p style=&quot;margin:0px;margin-top:6px;text-align:center;&quot;&gt;&lt;b&gt;《file》&lt;/b&gt;&lt;br&gt;&lt;/p&gt;&lt;hr&gt;&lt;p style=&quot;margin:0px;margin-left:8px;&quot;&gt;&lt;span style=&quot;white-space: pre;&quot;&gt;&#x9;&lt;/span&gt;device.cpp&lt;/p&gt;" style="align=left;overflow=fill;html=1;dropTarget=0;whiteSpace=wrap;" vertex="1" parent="1">
          <mxGeometry x="380" y="920" width="120" height="60" as="geometry" />
        </mxCell>
        <mxCell id="3-DTyi6wJWJmFrl9vL72-52" value="" style="shape=component;jettyWidth=8;jettyHeight=4;" vertex="1" parent="3-DTyi6wJWJmFrl9vL72-51">
          <mxGeometry x="1" width="20" height="20" relative="1" as="geometry">
            <mxPoint x="-24" y="4" as="offset" />
          </mxGeometry>
        </mxCell>
        <mxCell id="3-DTyi6wJWJmFrl9vL72-53" value="" style="html=1;verticalAlign=bottom;endArrow=open;dashed=1;endSize=8;curved=0;rounded=0;entryX=0.25;entryY=1;entryDx=0;entryDy=0;exitX=0.5;exitY=0;exitDx=0;exitDy=0;" edge="1" parent="1" source="3-DTyi6wJWJmFrl9vL72-43" target="3-DTyi6wJWJmFrl9vL72-47">
          <mxGeometry x="-0.0058" relative="1" as="geometry">
            <mxPoint x="410" y="1110" as="sourcePoint" />
            <mxPoint x="330" y="1110" as="targetPoint" />
            <mxPoint as="offset" />
          </mxGeometry>
        </mxCell>
        <mxCell id="3-DTyi6wJWJmFrl9vL72-54" value="&lt;br&gt;" style="endArrow=open;endSize=12;dashed=1;html=1;rounded=0;exitX=0.298;exitY=0.036;exitDx=0;exitDy=0;exitPerimeter=0;entryX=0.75;entryY=1;entryDx=0;entryDy=0;" edge="1" parent="1" source="3-DTyi6wJWJmFrl9vL72-51" target="3-DTyi6wJWJmFrl9vL72-43">
          <mxGeometry width="160" relative="1" as="geometry">
            <mxPoint x="220" y="880" as="sourcePoint" />
            <mxPoint x="290" y="880" as="targetPoint" />
          </mxGeometry>
        </mxCell>
        <mxCell id="3-DTyi6wJWJmFrl9vL72-55" value="" style="html=1;verticalAlign=bottom;endArrow=open;dashed=1;endSize=8;curved=0;rounded=0;entryX=0.75;entryY=1;entryDx=0;entryDy=0;exitX=0.5;exitY=0;exitDx=0;exitDy=0;" edge="1" parent="1" source="3-DTyi6wJWJmFrl9vL72-45" target="3-DTyi6wJWJmFrl9vL72-47">
          <mxGeometry relative="1" as="geometry">
            <mxPoint x="340" y="1060" as="sourcePoint" />
            <mxPoint x="260" y="1060" as="targetPoint" />
          </mxGeometry>
        </mxCell>
        <mxCell id="3-DTyi6wJWJmFrl9vL72-56" value="" style="endArrow=open;endSize=12;dashed=1;html=1;rounded=0;exitX=0.25;exitY=1;exitDx=0;exitDy=0;entryX=0.43;entryY=0.006;entryDx=0;entryDy=0;entryPerimeter=0;" edge="1" parent="1" source="3-DTyi6wJWJmFrl9vL72-43" target="3-DTyi6wJWJmFrl9vL72-49">
          <mxGeometry width="160" relative="1" as="geometry">
            <mxPoint x="270" y="930" as="sourcePoint" />
            <mxPoint x="260" y="870" as="targetPoint" />
          </mxGeometry>
        </mxCell>
        <mxCell id="3-DTyi6wJWJmFrl9vL72-57" value="{version = 4.0}" style="text;whiteSpace=wrap;html=1;" vertex="1" parent="1">
          <mxGeometry x="510" y="730" width="130" height="40" as="geometry" />
        </mxCell>
        <mxCell id="3-DTyi6wJWJmFrl9vL72-58" value="{version = 4.0}" style="text;whiteSpace=wrap;html=1;" vertex="1" parent="1">
          <mxGeometry x="410" y="600" width="130" height="20" as="geometry" />
        </mxCell>
      </root>
    </mxGraphModel>
  </diagram>
</mxfile>
